{"title":"Big Game (2014) BRRIP 1080P ( UNRATED VERSION )","uid":12347666,"size":3668104557,"categoryP":"video","categoryS":"hd___movies","magnet":"?xt=urn:btih:04103003dcfffb73f2167fba3ea88671a0f7c8ad&amp;dn=+Big+Game+%282014%29+BRRIP+1080P+%28+UNRATED+VERSION+%29&amp;tr=udp%3A%2F%2Ftracker.openbittorrent.com%3A80&amp;tr=udp%3A%2F%2Fopen.demonii.com%3A1337&amp;tr=udp%3A%2F%2Ftracker.coppersurfer.tk%3A6969&amp;tr=udp%3A%2F%2Fexodus.desync.com%3A6969","seeders":18,"leechers":15,"uploader":"jmanwf","files":4,"time":1441375369,"description":"Storyline\n\nWhen Air Force One is shot down by terrorists leaving the President of the United States stranded in the wilderness, there is only one person around who can save him - a 13-year old boy called Oskari. In the forest on a hunting mission to prove his maturity to his kinsfolk, Oskari had been planning to track down a deer, but instead discovers the most powerful man on the planet in an escape pod. With the terrorists closing in to capture their own &quot;Big Game&quot; prize, the unlikely duo must team up to escape their hunters. As anxious Pentagon officials observe the action via satellite feed, it is up to the President and his new side-kick to prove themselves and survive the most extraordinary 24 hours of their lives. \n\n\n\n\nVideo\nID                                       : 1\nFormat                                   : AVC\nFormat/Info                              : Advanced Video Codec\nFormat profile                           : Main@L4\nFormat settings, CABAC                   : Yes\nFormat settings, ReFrames                : 4 frames\nCodec ID                                 : avc1\nCodec ID/Info                            : Advanced Video Coding\nDuration                                 : 1h 30mn\nBit rate                                 : 5 000 Kbps\nWidth                                    : 1 920 pixels\nHeight                                   : 1 080 pixels\nDisplay aspect ratio                     : 16:9\nFrame rate mode                          : Variable\nFrame rate                               : 23.976 fps\nMinimum frame rate                       : 23.974 fps\nMaximum frame rate                       : 25.147 fps\nColor space                              : YUV\nChroma subsampling                       : 4:2:0\nBit depth                                : 8 bits\nScan type                                : Progressive\nBits/(Pixel*Frame)                       : 0.101\nStream size                              : 3.12 GiB (93%)\nWriting library                          : x264 core 142 r2479 dd79a61\n\nEncoded date                             : UTC 2036-02-06 06:28:16\nTagged date                              : UTC 2036-02-06 06:28:16\nColor range                              : Limited\nColor primaries                          : BT.709\nTransfer characteristics                 : BT.709\nMatrix coefficients                      : BT.709\n\nAudio\nID                                       : 2\nFormat                                   : AAC\nFormat/Info                              : Advanced Audio Codec\nFormat profile                           : LC\nCodec ID                                 : 40\nDuration                                 : 1h 30mn\nBit rate mode                            : Variable\nBit rate                                 : 384 Kbps\nChannel(s)                               : 2 channels\nChannel positions                        : Front: L R\nSampling rate                            : 48.0 KHz\nCompression mode                         : Lossy\nStream size                              : 249 MiB (7%)\nTitle                                    : Stereo / Stereo\nLanguage                                 : English\nEncoded date                             : UTC 2036-02-06 06:28:16\nTagged date                              : UTC 2036-02-06 06:28:16\n\n\n &lt;a href=&quot;\nhttp://s29.postimg.org/5n753buhj/image.jpg&quot; rel=&quot;nofollow&quot; target=&quot;_NEW&quot;&gt;\nhttp://s29.postimg.org/5n753buhj/image.jpg&lt;/a&gt;","torrent":{"xt":"urn:btih:04103003dcfffb73f2167fba3ea88671a0f7c8ad","amp;dn":"+Big+Game+%282014%29+BRRIP+1080P+%28+UNRATED+VERSION+%29","amp;tr":["udp%3A%2F%2Ftracker.openbittorrent.com%3A80","udp%3A%2F%2Fopen.demonii.com%3A1337","udp%3A%2F%2Ftracker.coppersurfer.tk%3A6969","udp%3A%2F%2Fexodus.desync.com%3A6969"],"infoHash":"04103003dcfffb73f2167fba3ea88671a0f7c8ad","infoHashBuffer":{"type":"Buffer","data":[4,16,48,3,220,255,251,115,242,22,127,186,62,168,134,113,160,247,200,173]},"announce":[],"urlList":[]}}